<mxfile host="65bd71144e" modified="2020-11-20T09:18:25.251Z" agent="5.0 (X11; Linux x86_64) AppleWebKit/537.36 (KHTML, like Gecko) Code/1.51.1 Chrome/83.0.4103.122 Electron/9.3.3 Safari/537.36" etag="p_Hky6l2-sqJp_XUH7oM" version="13.6.5" pages="6">
    <diagram id="MnQX6oPB-C9aTXaeOYE0" name="noindex11">
        <mxGraphModel dx="1003" dy="803" grid="1" gridSize="10" guides="1" tooltips="1" connect="1" arrows="1" fold="1" page="1" pageScale="1" pageWidth="827" pageHeight="1169" math="0" shadow="0">
            <root>
                <mxCell id="0"/>
                <mxCell id="1" parent="0"/>
                <mxCell id="c53lZvjA8iP_1bRCkW00-9" style="edgeStyle=orthogonalEdgeStyle;rounded=0;sketch=1;orthogonalLoop=1;jettySize=auto;html=1;entryX=0.25;entryY=0;entryDx=0;entryDy=0;curved=1;" parent="1" source="c53lZvjA8iP_1bRCkW00-5" target="c53lZvjA8iP_1bRCkW00-7" edge="1">
                    <mxGeometry relative="1" as="geometry"/>
                </mxCell>
                <mxCell id="c53lZvjA8iP_1bRCkW00-5" value="Н_ОЦЕНКИ" style="text;html=1;fillColor=none;align=center;verticalAlign=middle;whiteSpace=wrap;rounded=0;shadow=0;glass=0;sketch=1;" parent="1" vertex="1">
                    <mxGeometry x="40" y="40" width="120" height="40" as="geometry"/>
                </mxCell>
                <mxCell id="c53lZvjA8iP_1bRCkW00-10" style="edgeStyle=orthogonalEdgeStyle;rounded=0;sketch=1;orthogonalLoop=1;jettySize=auto;html=1;entryX=0.75;entryY=0;entryDx=0;entryDy=0;curved=1;" parent="1" source="c53lZvjA8iP_1bRCkW00-6" target="c53lZvjA8iP_1bRCkW00-7" edge="1">
                    <mxGeometry relative="1" as="geometry"/>
                </mxCell>
                <mxCell id="c53lZvjA8iP_1bRCkW00-6" value="Н_ВЕДОМОСТИ" style="text;html=1;strokeColor=none;fillColor=none;align=center;verticalAlign=middle;whiteSpace=wrap;rounded=0;shadow=0;glass=0;sketch=1;" parent="1" vertex="1">
                    <mxGeometry x="200" y="40" width="120" height="40" as="geometry"/>
                </mxCell>
                <mxCell id="c53lZvjA8iP_1bRCkW00-12" style="edgeStyle=orthogonalEdgeStyle;rounded=0;sketch=1;orthogonalLoop=1;jettySize=auto;html=1;entryX=0.5;entryY=0;entryDx=0;entryDy=0;curved=1;" parent="1" source="c53lZvjA8iP_1bRCkW00-7" target="c53lZvjA8iP_1bRCkW00-11" edge="1">
                    <mxGeometry relative="1" as="geometry"/>
                </mxCell>
                <mxCell id="c53lZvjA8iP_1bRCkW00-7" value="соединение&lt;br&gt;Н_ОЦЕНКИ.КОД =&lt;br&gt;= Н_ВЕДОМОСТИ.ОЦЕНКА" style="text;html=1;strokeColor=none;fillColor=none;align=center;verticalAlign=middle;whiteSpace=wrap;rounded=0;shadow=0;glass=0;sketch=1;" parent="1" vertex="1">
                    <mxGeometry x="80" y="150" width="200" height="60" as="geometry"/>
                </mxCell>
                <mxCell id="c53lZvjA8iP_1bRCkW00-14" style="edgeStyle=orthogonalEdgeStyle;rounded=0;sketch=1;orthogonalLoop=1;jettySize=auto;html=1;entryX=0.5;entryY=0;entryDx=0;entryDy=0;curved=1;" parent="1" source="c53lZvjA8iP_1bRCkW00-11" target="c53lZvjA8iP_1bRCkW00-13" edge="1">
                    <mxGeometry relative="1" as="geometry"/>
                </mxCell>
                <mxCell id="c53lZvjA8iP_1bRCkW00-11" value="выборка&lt;br&gt;Н_ОЦЕНКИ.КОД = 'зачет' &amp;amp;&lt;br&gt;&amp;amp; Н_ВЕДОМОСТИ.ИД &amp;lt; 39921" style="text;html=1;strokeColor=none;fillColor=none;align=center;verticalAlign=middle;whiteSpace=wrap;rounded=0;shadow=0;glass=0;sketch=1;" parent="1" vertex="1">
                    <mxGeometry x="80" y="270" width="200" height="60" as="geometry"/>
                </mxCell>
                <mxCell id="c53lZvjA8iP_1bRCkW00-13" value="проекция&lt;br&gt;Н_ОЦЕНКИ.КОД,&lt;br&gt;Н_ВЕДОМОСТИ.ДАТА" style="text;html=1;strokeColor=none;fillColor=none;align=center;verticalAlign=middle;whiteSpace=wrap;rounded=0;shadow=0;glass=0;sketch=1;" parent="1" vertex="1">
                    <mxGeometry x="80" y="390" width="200" height="60" as="geometry"/>
                </mxCell>
            </root>
        </mxGraphModel>
    </diagram>
    <diagram id="7exjtATBWEes2qV4vlRi" name="noindex12">
        <mxGraphModel dx="836" dy="669" grid="1" gridSize="10" guides="1" tooltips="1" connect="1" arrows="1" fold="1" page="1" pageScale="1" pageWidth="827" pageHeight="1169" math="0" shadow="0">
            <root>
                <mxCell id="fJrIqwOVSBeejMtJ57Tm-0"/>
                <mxCell id="fJrIqwOVSBeejMtJ57Tm-1" parent="fJrIqwOVSBeejMtJ57Tm-0"/>
                <mxCell id="HbfbccSffSW5YbSu-lwn-41" style="edgeStyle=orthogonalEdgeStyle;rounded=0;sketch=1;orthogonalLoop=1;jettySize=auto;html=1;entryX=0.5;entryY=0;entryDx=0;entryDy=0;curved=1;" parent="fJrIqwOVSBeejMtJ57Tm-1" source="HbfbccSffSW5YbSu-lwn-19" target="HbfbccSffSW5YbSu-lwn-37" edge="1">
                    <mxGeometry relative="1" as="geometry"/>
                </mxCell>
                <mxCell id="HbfbccSffSW5YbSu-lwn-19" value="Н_ОЦЕНКИ" style="text;html=1;fillColor=none;align=center;verticalAlign=middle;whiteSpace=wrap;rounded=0;shadow=0;glass=0;sketch=1;" parent="fJrIqwOVSBeejMtJ57Tm-1" vertex="1">
                    <mxGeometry x="40" y="40" width="120" height="40" as="geometry"/>
                </mxCell>
                <mxCell id="HbfbccSffSW5YbSu-lwn-40" style="edgeStyle=orthogonalEdgeStyle;rounded=0;sketch=1;orthogonalLoop=1;jettySize=auto;html=1;entryX=0.5;entryY=0;entryDx=0;entryDy=0;curved=1;" parent="fJrIqwOVSBeejMtJ57Tm-1" source="HbfbccSffSW5YbSu-lwn-21" target="HbfbccSffSW5YbSu-lwn-39" edge="1">
                    <mxGeometry relative="1" as="geometry"/>
                </mxCell>
                <mxCell id="HbfbccSffSW5YbSu-lwn-21" value="Н_ВЕДОМОСТИ" style="text;html=1;strokeColor=none;fillColor=none;align=center;verticalAlign=middle;whiteSpace=wrap;rounded=0;shadow=0;glass=0;sketch=1;" parent="fJrIqwOVSBeejMtJ57Tm-1" vertex="1">
                    <mxGeometry x="200" y="40" width="120" height="40" as="geometry"/>
                </mxCell>
                <mxCell id="HbfbccSffSW5YbSu-lwn-44" style="edgeStyle=orthogonalEdgeStyle;rounded=0;sketch=1;orthogonalLoop=1;jettySize=auto;html=1;entryX=0.5;entryY=0;entryDx=0;entryDy=0;curved=1;" parent="fJrIqwOVSBeejMtJ57Tm-1" source="HbfbccSffSW5YbSu-lwn-23" target="HbfbccSffSW5YbSu-lwn-26" edge="1">
                    <mxGeometry relative="1" as="geometry"/>
                </mxCell>
                <mxCell id="HbfbccSffSW5YbSu-lwn-23" value="соединение&lt;br&gt;Н_ОЦЕНКИ.КОД =&lt;br&gt;= Н_ВЕДОМОСТИ.ОЦЕНКА" style="text;html=1;strokeColor=none;fillColor=none;align=center;verticalAlign=middle;whiteSpace=wrap;rounded=0;shadow=0;glass=0;sketch=1;" parent="fJrIqwOVSBeejMtJ57Tm-1" vertex="1">
                    <mxGeometry x="80" y="230" width="200" height="60" as="geometry"/>
                </mxCell>
                <mxCell id="HbfbccSffSW5YbSu-lwn-26" value="проекция&lt;br&gt;Н_ОЦЕНКИ.КОД,&lt;br&gt;Н_ВЕДОМОСТИ.ДАТА" style="text;html=1;strokeColor=none;fillColor=none;align=center;verticalAlign=middle;whiteSpace=wrap;rounded=0;shadow=0;glass=0;sketch=1;" parent="fJrIqwOVSBeejMtJ57Tm-1" vertex="1">
                    <mxGeometry x="80" y="350" width="200" height="60" as="geometry"/>
                </mxCell>
                <mxCell id="HbfbccSffSW5YbSu-lwn-42" style="edgeStyle=orthogonalEdgeStyle;rounded=0;sketch=1;orthogonalLoop=1;jettySize=auto;html=1;entryX=0.25;entryY=0;entryDx=0;entryDy=0;curved=1;" parent="fJrIqwOVSBeejMtJ57Tm-1" source="HbfbccSffSW5YbSu-lwn-37" target="HbfbccSffSW5YbSu-lwn-23" edge="1">
                    <mxGeometry relative="1" as="geometry"/>
                </mxCell>
                <mxCell id="HbfbccSffSW5YbSu-lwn-37" value="выборка&lt;br&gt;КОД = 'зачет'" style="text;html=1;strokeColor=none;fillColor=none;align=center;verticalAlign=middle;whiteSpace=wrap;rounded=0;shadow=0;glass=0;sketch=1;" parent="fJrIqwOVSBeejMtJ57Tm-1" vertex="1">
                    <mxGeometry x="40" y="120" width="120" height="40" as="geometry"/>
                </mxCell>
                <mxCell id="HbfbccSffSW5YbSu-lwn-43" style="edgeStyle=orthogonalEdgeStyle;rounded=0;sketch=1;orthogonalLoop=1;jettySize=auto;html=1;entryX=0.75;entryY=0;entryDx=0;entryDy=0;curved=1;" parent="fJrIqwOVSBeejMtJ57Tm-1" source="HbfbccSffSW5YbSu-lwn-39" target="HbfbccSffSW5YbSu-lwn-23" edge="1">
                    <mxGeometry relative="1" as="geometry"/>
                </mxCell>
                <mxCell id="HbfbccSffSW5YbSu-lwn-39" value="выборка&lt;br&gt;ИД &amp;lt; 39921" style="text;html=1;strokeColor=none;fillColor=none;align=center;verticalAlign=middle;whiteSpace=wrap;rounded=0;shadow=0;glass=0;sketch=1;" parent="fJrIqwOVSBeejMtJ57Tm-1" vertex="1">
                    <mxGeometry x="200" y="120" width="120" height="40" as="geometry"/>
                </mxCell>
            </root>
        </mxGraphModel>
    </diagram>
    <diagram name="noindex13" id="Ld1OkHMdq9ie9o1aTqeU">
        <mxGraphModel dx="573" dy="459" grid="1" gridSize="10" guides="1" tooltips="1" connect="1" arrows="1" fold="1" page="1" pageScale="1" pageWidth="827" pageHeight="1169" math="0" shadow="0">
            <root>
                <mxCell id="yk6AU4LGWYqHzzDFYE2h-0"/>
                <mxCell id="yk6AU4LGWYqHzzDFYE2h-1" parent="yk6AU4LGWYqHzzDFYE2h-0"/>
                <mxCell id="yk6AU4LGWYqHzzDFYE2h-2" style="edgeStyle=orthogonalEdgeStyle;rounded=0;orthogonalLoop=1;jettySize=auto;html=1;entryX=0.5;entryY=0;entryDx=0;entryDy=0;sketch=1;curved=1;" edge="1" parent="yk6AU4LGWYqHzzDFYE2h-1" source="yk6AU4LGWYqHzzDFYE2h-3" target="yk6AU4LGWYqHzzDFYE2h-10">
                    <mxGeometry relative="1" as="geometry"/>
                </mxCell>
                <mxCell id="yk6AU4LGWYqHzzDFYE2h-3" value="Н_ОЦЕНКИ" style="text;html=1;fillColor=none;align=center;verticalAlign=middle;whiteSpace=wrap;rounded=0;shadow=0;glass=0;sketch=1;" vertex="1" parent="yk6AU4LGWYqHzzDFYE2h-1">
                    <mxGeometry x="40" y="40" width="120" height="40" as="geometry"/>
                </mxCell>
                <mxCell id="yk6AU4LGWYqHzzDFYE2h-4" style="edgeStyle=orthogonalEdgeStyle;rounded=0;orthogonalLoop=1;jettySize=auto;html=1;entryX=0.5;entryY=0;entryDx=0;entryDy=0;sketch=1;curved=1;" edge="1" parent="yk6AU4LGWYqHzzDFYE2h-1" source="yk6AU4LGWYqHzzDFYE2h-5" target="yk6AU4LGWYqHzzDFYE2h-12">
                    <mxGeometry relative="1" as="geometry"/>
                </mxCell>
                <mxCell id="yk6AU4LGWYqHzzDFYE2h-5" value="Н_ВЕДОМОСТИ" style="text;html=1;strokeColor=none;fillColor=none;align=center;verticalAlign=middle;whiteSpace=wrap;rounded=0;shadow=0;glass=0;sketch=1;" vertex="1" parent="yk6AU4LGWYqHzzDFYE2h-1">
                    <mxGeometry x="200" y="40" width="120" height="40" as="geometry"/>
                </mxCell>
                <mxCell id="yk6AU4LGWYqHzzDFYE2h-6" style="edgeStyle=orthogonalEdgeStyle;rounded=0;orthogonalLoop=1;jettySize=auto;html=1;entryX=0.5;entryY=0;entryDx=0;entryDy=0;sketch=1;curved=1;" edge="1" parent="yk6AU4LGWYqHzzDFYE2h-1" source="yk6AU4LGWYqHzzDFYE2h-7" target="yk6AU4LGWYqHzzDFYE2h-8">
                    <mxGeometry relative="1" as="geometry"/>
                </mxCell>
                <mxCell id="yk6AU4LGWYqHzzDFYE2h-7" value="соединение&lt;br&gt;Н_ОЦЕНКИ.КОД =&lt;br&gt;= Н_ВЕДОМОСТИ.ОЦЕНКА" style="text;html=1;strokeColor=none;fillColor=none;align=center;verticalAlign=middle;whiteSpace=wrap;rounded=0;shadow=0;glass=0;sketch=1;" vertex="1" parent="yk6AU4LGWYqHzzDFYE2h-1">
                    <mxGeometry x="80" y="300" width="200" height="60" as="geometry"/>
                </mxCell>
                <mxCell id="yk6AU4LGWYqHzzDFYE2h-8" value="проекция&lt;br&gt;Н_ОЦЕНКИ.КОД,&lt;br&gt;Н_ВЕДОМОСТИ.ДАТА" style="text;html=1;strokeColor=none;fillColor=none;align=center;verticalAlign=middle;whiteSpace=wrap;rounded=0;shadow=0;glass=0;sketch=1;" vertex="1" parent="yk6AU4LGWYqHzzDFYE2h-1">
                    <mxGeometry x="80" y="420" width="200" height="60" as="geometry"/>
                </mxCell>
                <mxCell id="yk6AU4LGWYqHzzDFYE2h-16" style="edgeStyle=orthogonalEdgeStyle;rounded=0;orthogonalLoop=1;jettySize=auto;html=1;entryX=0.5;entryY=0;entryDx=0;entryDy=0;sketch=1;curved=1;" edge="1" parent="yk6AU4LGWYqHzzDFYE2h-1" source="yk6AU4LGWYqHzzDFYE2h-10" target="yk6AU4LGWYqHzzDFYE2h-14">
                    <mxGeometry relative="1" as="geometry"/>
                </mxCell>
                <mxCell id="yk6AU4LGWYqHzzDFYE2h-10" value="выборка&lt;br&gt;КОД = 'зачет'" style="text;html=1;strokeColor=none;fillColor=none;align=center;verticalAlign=middle;whiteSpace=wrap;rounded=0;shadow=0;glass=0;sketch=1;" vertex="1" parent="yk6AU4LGWYqHzzDFYE2h-1">
                    <mxGeometry x="40" y="120" width="120" height="40" as="geometry"/>
                </mxCell>
                <mxCell id="yk6AU4LGWYqHzzDFYE2h-17" style="edgeStyle=orthogonalEdgeStyle;rounded=0;orthogonalLoop=1;jettySize=auto;html=1;exitX=0.5;exitY=1;exitDx=0;exitDy=0;entryX=0.5;entryY=0;entryDx=0;entryDy=0;sketch=1;curved=1;" edge="1" parent="yk6AU4LGWYqHzzDFYE2h-1" source="yk6AU4LGWYqHzzDFYE2h-12" target="yk6AU4LGWYqHzzDFYE2h-15">
                    <mxGeometry relative="1" as="geometry"/>
                </mxCell>
                <mxCell id="yk6AU4LGWYqHzzDFYE2h-12" value="выборка&lt;br&gt;ИД &amp;lt; 39921" style="text;html=1;strokeColor=none;fillColor=none;align=center;verticalAlign=middle;whiteSpace=wrap;rounded=0;shadow=0;glass=0;sketch=1;" vertex="1" parent="yk6AU4LGWYqHzzDFYE2h-1">
                    <mxGeometry x="200" y="120" width="120" height="40" as="geometry"/>
                </mxCell>
                <mxCell id="yk6AU4LGWYqHzzDFYE2h-19" style="edgeStyle=orthogonalEdgeStyle;rounded=0;orthogonalLoop=1;jettySize=auto;html=1;entryX=0.25;entryY=0;entryDx=0;entryDy=0;sketch=1;curved=1;" edge="1" parent="yk6AU4LGWYqHzzDFYE2h-1" source="yk6AU4LGWYqHzzDFYE2h-14" target="yk6AU4LGWYqHzzDFYE2h-7">
                    <mxGeometry relative="1" as="geometry"/>
                </mxCell>
                <mxCell id="yk6AU4LGWYqHzzDFYE2h-14" value="проекция&lt;br&gt;КОД" style="text;html=1;strokeColor=none;fillColor=none;align=center;verticalAlign=middle;whiteSpace=wrap;rounded=0;sketch=1;" vertex="1" parent="yk6AU4LGWYqHzzDFYE2h-1">
                    <mxGeometry x="40" y="200" width="120" height="40" as="geometry"/>
                </mxCell>
                <mxCell id="yk6AU4LGWYqHzzDFYE2h-18" style="edgeStyle=orthogonalEdgeStyle;rounded=0;orthogonalLoop=1;jettySize=auto;html=1;entryX=0.75;entryY=0;entryDx=0;entryDy=0;sketch=1;curved=1;" edge="1" parent="yk6AU4LGWYqHzzDFYE2h-1" source="yk6AU4LGWYqHzzDFYE2h-15" target="yk6AU4LGWYqHzzDFYE2h-7">
                    <mxGeometry relative="1" as="geometry"/>
                </mxCell>
                <mxCell id="yk6AU4LGWYqHzzDFYE2h-15" value="проекция&lt;br&gt;ДАТА, ОЦЕНКА" style="text;html=1;strokeColor=none;fillColor=none;align=center;verticalAlign=middle;whiteSpace=wrap;rounded=0;sketch=1;" vertex="1" parent="yk6AU4LGWYqHzzDFYE2h-1">
                    <mxGeometry x="200" y="200" width="120" height="40" as="geometry"/>
                </mxCell>
            </root>
        </mxGraphModel>
    </diagram>
    <diagram id="o6XtV83wmu76OxQuyacV" name="noindex21">
        &#xa;
        <mxGraphModel dx="1178" dy="803" grid="1" gridSize="10" guides="1" tooltips="1" connect="1" arrows="1" fold="1" page="1" pageScale="1" pageWidth="827" pageHeight="1169" math="0" shadow="0">
            &#xa;
            <root>
                &#xa;
                <mxCell id="T6Ul83kBEjmkVFzNCQ_f-0"/>
                &#xa;
                <mxCell id="T6Ul83kBEjmkVFzNCQ_f-1" parent="T6Ul83kBEjmkVFzNCQ_f-0"/>
                &#xa;
                <mxCell id="RGj8w30DiluyUhZ4qjV7-1" style="edgeStyle=orthogonalEdgeStyle;orthogonalLoop=1;jettySize=auto;html=1;entryX=0.25;entryY=0;entryDx=0;entryDy=0;sketch=1;curved=1;" edge="1" parent="T6Ul83kBEjmkVFzNCQ_f-1" source="Dy1aNOdIB9b6zMX3uRbU-0" target="Dy1aNOdIB9b6zMX3uRbU-3">
                    &#xa;
                    <mxGeometry relative="1" as="geometry"/>
                    &#xa;
                </mxCell>
                &#xa;
                <mxCell id="Dy1aNOdIB9b6zMX3uRbU-0" value="Н_ЛЮДИ" style="text;html=1;strokeColor=none;fillColor=none;align=center;verticalAlign=middle;whiteSpace=wrap;shadow=0;glass=0;sketch=1;" vertex="1" parent="T6Ul83kBEjmkVFzNCQ_f-1">
                    &#xa;
                    <mxGeometry x="40" y="40" width="120" height="40" as="geometry"/>
                    &#xa;
                </mxCell>
                &#xa;
                <mxCell id="RGj8w30DiluyUhZ4qjV7-0" style="edgeStyle=orthogonalEdgeStyle;orthogonalLoop=1;jettySize=auto;html=1;entryX=0.75;entryY=0;entryDx=0;entryDy=0;sketch=1;curved=1;" edge="1" parent="T6Ul83kBEjmkVFzNCQ_f-1" source="Dy1aNOdIB9b6zMX3uRbU-1" target="Dy1aNOdIB9b6zMX3uRbU-3">
                    &#xa;
                    <mxGeometry relative="1" as="geometry"/>
                    &#xa;
                </mxCell>
                &#xa;
                <mxCell id="Dy1aNOdIB9b6zMX3uRbU-1" value="Н_ОБУЧЕНИЯ" style="text;html=1;strokeColor=none;fillColor=none;align=center;verticalAlign=middle;whiteSpace=wrap;shadow=0;glass=0;sketch=1;" vertex="1" parent="T6Ul83kBEjmkVFzNCQ_f-1">
                    &#xa;
                    <mxGeometry x="200" y="40" width="120" height="40" as="geometry"/>
                    &#xa;
                </mxCell>
                &#xa;
                <mxCell id="RGj8w30DiluyUhZ4qjV7-3" style="edgeStyle=orthogonalEdgeStyle;orthogonalLoop=1;jettySize=auto;html=1;entryX=0.75;entryY=0;entryDx=0;entryDy=0;sketch=1;curved=1;" edge="1" parent="T6Ul83kBEjmkVFzNCQ_f-1" source="Dy1aNOdIB9b6zMX3uRbU-2" target="NnMXxXzFN04NFoUpeeiy-0">
                    &#xa;
                    <mxGeometry relative="1" as="geometry"/>
                    &#xa;
                </mxCell>
                &#xa;
                <mxCell id="Dy1aNOdIB9b6zMX3uRbU-2" value="Н_УЧЕНИКИ" style="text;html=1;strokeColor=none;fillColor=none;align=center;verticalAlign=middle;whiteSpace=wrap;shadow=0;glass=0;sketch=1;" vertex="1" parent="T6Ul83kBEjmkVFzNCQ_f-1">
                    &#xa;
                    <mxGeometry x="360" y="40" width="120" height="40" as="geometry"/>
                    &#xa;
                </mxCell>
                &#xa;
                <mxCell id="RGj8w30DiluyUhZ4qjV7-2" style="edgeStyle=orthogonalEdgeStyle;orthogonalLoop=1;jettySize=auto;html=1;entryX=0.25;entryY=0;entryDx=0;entryDy=0;sketch=1;curved=1;" edge="1" parent="T6Ul83kBEjmkVFzNCQ_f-1" source="Dy1aNOdIB9b6zMX3uRbU-3" target="NnMXxXzFN04NFoUpeeiy-0">
                    &#xa;
                    <mxGeometry relative="1" as="geometry"/>
                    &#xa;
                </mxCell>
                &#xa;
                <mxCell id="Dy1aNOdIB9b6zMX3uRbU-3" value="соединение&lt;br&gt;Н_ЛЮДИ.ИД =&lt;br&gt;= Н_ОБУЧЕНИЯ.ЧЛВК_ИД" style="text;html=1;strokeColor=none;fillColor=none;align=center;verticalAlign=middle;whiteSpace=wrap;shadow=0;glass=0;sketch=1;" vertex="1" parent="T6Ul83kBEjmkVFzNCQ_f-1">
                    &#xa;
                    <mxGeometry x="80" y="150" width="200" height="60" as="geometry"/>
                    &#xa;
                </mxCell>
                &#xa;
                <mxCell id="80s9S10xAOaPuQ9aNUIw-0" style="edgeStyle=orthogonalEdgeStyle;curved=1;rounded=0;sketch=1;orthogonalLoop=1;jettySize=auto;html=1;entryX=0.5;entryY=0;entryDx=0;entryDy=0;" edge="1" parent="T6Ul83kBEjmkVFzNCQ_f-1" source="NnMXxXzFN04NFoUpeeiy-0" target="iI1NOXYv_pXlsd6w7gvJ-0">
                    &#xa;
                    <mxGeometry relative="1" as="geometry"/>
                    &#xa;
                </mxCell>
                &#xa;
                <mxCell id="NnMXxXzFN04NFoUpeeiy-0" value="соединение&lt;br&gt;Н_ЛЮДИ.ИД =&lt;br&gt;= Н_УЧЕНИКИ.ЧЛВК_ИД" style="text;html=1;strokeColor=none;fillColor=none;align=center;verticalAlign=middle;whiteSpace=wrap;shadow=0;glass=0;sketch=1;" vertex="1" parent="T6Ul83kBEjmkVFzNCQ_f-1">
                    &#xa;
                    <mxGeometry x="160" y="270" width="200" height="60" as="geometry"/>
                    &#xa;
                </mxCell>
                &#xa;
                <mxCell id="80s9S10xAOaPuQ9aNUIw-2" style="edgeStyle=orthogonalEdgeStyle;curved=1;rounded=0;sketch=1;orthogonalLoop=1;jettySize=auto;html=1;entryX=0.5;entryY=0;entryDx=0;entryDy=0;" edge="1" parent="T6Ul83kBEjmkVFzNCQ_f-1" source="iI1NOXYv_pXlsd6w7gvJ-0" target="80s9S10xAOaPuQ9aNUIw-1">
                    &#xa;
                    <mxGeometry relative="1" as="geometry"/>
                    &#xa;
                </mxCell>
                &#xa;
                <mxCell id="iI1NOXYv_pXlsd6w7gvJ-0" value="выборка&lt;br&gt;Н_ЛЮДИ.ИМЯ &amp;gt; 'Александр' &amp;amp;&lt;br&gt;&amp;amp;&amp;nbsp;Н_ОБУЧЕНИЯ.ЧЛВК_ИД = 163276 &amp;amp;&lt;br&gt;&amp;amp;&amp;nbsp;Н_УЧЕНИКИ.ГРУППА = '1100'" style="text;html=1;strokeColor=none;fillColor=none;align=center;verticalAlign=middle;whiteSpace=wrap;rounded=0;shadow=0;glass=0;sketch=1;" vertex="1" parent="T6Ul83kBEjmkVFzNCQ_f-1">
                    &#xa;
                    <mxGeometry x="120" y="390" width="280" height="60" as="geometry"/>
                    &#xa;
                </mxCell>
                &#xa;
                <mxCell id="80s9S10xAOaPuQ9aNUIw-1" value="проекция&lt;br&gt;Н_ЛЮДИ.ИМЯ,&lt;br&gt;Н_ОБУЧЕНИЯ.ЧЛВК_ИД,&lt;br&gt;Н_УЧЕНИКИ.НАЧАЛО" style="text;html=1;strokeColor=none;fillColor=none;align=center;verticalAlign=middle;whiteSpace=wrap;rounded=0;shadow=0;glass=0;sketch=1;" vertex="1" parent="T6Ul83kBEjmkVFzNCQ_f-1">
                    &#xa;
                    <mxGeometry x="160" y="510" width="200" height="60" as="geometry"/>
                    &#xa;
                </mxCell>
                &#xa;
            </root>
            &#xa;
        </mxGraphModel>
        &#xa;
    </diagram>
    <diagram id="rxIeD1URFhyzfXr6XkVy" name="noindex22">
        <mxGraphModel dx="1003" dy="803" grid="1" gridSize="10" guides="1" tooltips="1" connect="1" arrows="1" fold="1" page="1" pageScale="1" pageWidth="827" pageHeight="1169" math="0" shadow="0">
            <root>
                <mxCell id="DNUoQDOTjJkvydAdSDQF-0"/>
                <mxCell id="DNUoQDOTjJkvydAdSDQF-1" parent="DNUoQDOTjJkvydAdSDQF-0"/>
                <mxCell id="J0D0oRUthXCUPJ4Bvq_p-27" style="edgeStyle=orthogonalEdgeStyle;curved=1;rounded=0;sketch=1;orthogonalLoop=1;jettySize=auto;html=1;entryX=0.5;entryY=0;entryDx=0;entryDy=0;" parent="DNUoQDOTjJkvydAdSDQF-1" source="J0D0oRUthXCUPJ4Bvq_p-1" target="J0D0oRUthXCUPJ4Bvq_p-26" edge="1">
                    <mxGeometry relative="1" as="geometry"/>
                </mxCell>
                <mxCell id="J0D0oRUthXCUPJ4Bvq_p-1" value="Н_ЛЮДИ" style="text;html=1;strokeColor=none;fillColor=none;align=center;verticalAlign=middle;whiteSpace=wrap;shadow=0;glass=0;sketch=1;" parent="DNUoQDOTjJkvydAdSDQF-1" vertex="1">
                    <mxGeometry x="40" y="40" width="120" height="40" as="geometry"/>
                </mxCell>
                <mxCell id="J0D0oRUthXCUPJ4Bvq_p-30" style="edgeStyle=orthogonalEdgeStyle;curved=1;rounded=0;sketch=1;orthogonalLoop=1;jettySize=auto;html=1;entryX=0.5;entryY=0;entryDx=0;entryDy=0;" parent="DNUoQDOTjJkvydAdSDQF-1" source="J0D0oRUthXCUPJ4Bvq_p-3" target="J0D0oRUthXCUPJ4Bvq_p-28" edge="1">
                    <mxGeometry relative="1" as="geometry"/>
                </mxCell>
                <mxCell id="J0D0oRUthXCUPJ4Bvq_p-3" value="Н_ОБУЧЕНИЯ" style="text;html=1;strokeColor=none;fillColor=none;align=center;verticalAlign=middle;whiteSpace=wrap;shadow=0;glass=0;sketch=1;" parent="DNUoQDOTjJkvydAdSDQF-1" vertex="1">
                    <mxGeometry x="200" y="40" width="120" height="40" as="geometry"/>
                </mxCell>
                <mxCell id="J0D0oRUthXCUPJ4Bvq_p-31" style="edgeStyle=orthogonalEdgeStyle;curved=1;rounded=0;sketch=1;orthogonalLoop=1;jettySize=auto;html=1;entryX=0.5;entryY=0;entryDx=0;entryDy=0;" parent="DNUoQDOTjJkvydAdSDQF-1" source="J0D0oRUthXCUPJ4Bvq_p-5" target="J0D0oRUthXCUPJ4Bvq_p-29" edge="1">
                    <mxGeometry relative="1" as="geometry"/>
                </mxCell>
                <mxCell id="J0D0oRUthXCUPJ4Bvq_p-5" value="Н_УЧЕНИКИ" style="text;html=1;strokeColor=none;fillColor=none;align=center;verticalAlign=middle;whiteSpace=wrap;shadow=0;glass=0;sketch=1;" parent="DNUoQDOTjJkvydAdSDQF-1" vertex="1">
                    <mxGeometry x="360" y="40" width="120" height="40" as="geometry"/>
                </mxCell>
                <mxCell id="J0D0oRUthXCUPJ4Bvq_p-34" style="edgeStyle=orthogonalEdgeStyle;curved=1;rounded=0;sketch=1;orthogonalLoop=1;jettySize=auto;html=1;entryX=0.25;entryY=0;entryDx=0;entryDy=0;" parent="DNUoQDOTjJkvydAdSDQF-1" source="J0D0oRUthXCUPJ4Bvq_p-7" target="J0D0oRUthXCUPJ4Bvq_p-9" edge="1">
                    <mxGeometry relative="1" as="geometry"/>
                </mxCell>
                <mxCell id="J0D0oRUthXCUPJ4Bvq_p-7" value="соединение&lt;br&gt;Н_ЛЮДИ.ИД =&lt;br&gt;= Н_ОБУЧЕНИЯ.ЧЛВК_ИД" style="text;html=1;strokeColor=none;fillColor=none;align=center;verticalAlign=middle;whiteSpace=wrap;shadow=0;glass=0;sketch=1;" parent="DNUoQDOTjJkvydAdSDQF-1" vertex="1">
                    <mxGeometry x="80" y="230" width="200" height="60" as="geometry"/>
                </mxCell>
                <mxCell id="J0D0oRUthXCUPJ4Bvq_p-36" style="edgeStyle=orthogonalEdgeStyle;curved=1;rounded=0;sketch=1;orthogonalLoop=1;jettySize=auto;html=1;entryX=0.5;entryY=0;entryDx=0;entryDy=0;" parent="DNUoQDOTjJkvydAdSDQF-1" source="J0D0oRUthXCUPJ4Bvq_p-9" target="J0D0oRUthXCUPJ4Bvq_p-12" edge="1">
                    <mxGeometry relative="1" as="geometry"/>
                </mxCell>
                <mxCell id="J0D0oRUthXCUPJ4Bvq_p-9" value="соединение&lt;br&gt;Н_ЛЮДИ.ИД =&lt;br&gt;= Н_УЧЕНИКИ.ЧЛВК_ИД" style="text;html=1;strokeColor=none;fillColor=none;align=center;verticalAlign=middle;whiteSpace=wrap;shadow=0;glass=0;sketch=1;" parent="DNUoQDOTjJkvydAdSDQF-1" vertex="1">
                    <mxGeometry x="160" y="350" width="200" height="60" as="geometry"/>
                </mxCell>
                <mxCell id="J0D0oRUthXCUPJ4Bvq_p-12" value="проекция&lt;br&gt;Н_ЛЮДИ.ИМЯ,&lt;br&gt;Н_ОБУЧЕНИЯ.ЧЛВК_ИД,&lt;br&gt;Н_УЧЕНИКИ.НАЧАЛО" style="text;html=1;strokeColor=none;fillColor=none;align=center;verticalAlign=middle;whiteSpace=wrap;rounded=0;shadow=0;glass=0;sketch=1;" parent="DNUoQDOTjJkvydAdSDQF-1" vertex="1">
                    <mxGeometry x="160" y="470" width="200" height="60" as="geometry"/>
                </mxCell>
                <mxCell id="J0D0oRUthXCUPJ4Bvq_p-32" style="edgeStyle=orthogonalEdgeStyle;curved=1;rounded=0;sketch=1;orthogonalLoop=1;jettySize=auto;html=1;exitX=0.5;exitY=1;exitDx=0;exitDy=0;entryX=0.25;entryY=0;entryDx=0;entryDy=0;" parent="DNUoQDOTjJkvydAdSDQF-1" source="J0D0oRUthXCUPJ4Bvq_p-26" target="J0D0oRUthXCUPJ4Bvq_p-7" edge="1">
                    <mxGeometry relative="1" as="geometry"/>
                </mxCell>
                <mxCell id="J0D0oRUthXCUPJ4Bvq_p-26" value="выборка&lt;br&gt;ИМЯ &amp;gt; 'Александр'" style="text;html=1;strokeColor=none;fillColor=none;align=center;verticalAlign=middle;whiteSpace=wrap;rounded=0;shadow=0;glass=0;sketch=1;" parent="DNUoQDOTjJkvydAdSDQF-1" vertex="1">
                    <mxGeometry x="40" y="120" width="120" height="40" as="geometry"/>
                </mxCell>
                <mxCell id="J0D0oRUthXCUPJ4Bvq_p-33" style="edgeStyle=orthogonalEdgeStyle;curved=1;rounded=0;sketch=1;orthogonalLoop=1;jettySize=auto;html=1;exitX=0.5;exitY=1;exitDx=0;exitDy=0;entryX=0.75;entryY=0;entryDx=0;entryDy=0;" parent="DNUoQDOTjJkvydAdSDQF-1" source="J0D0oRUthXCUPJ4Bvq_p-28" target="J0D0oRUthXCUPJ4Bvq_p-7" edge="1">
                    <mxGeometry relative="1" as="geometry"/>
                </mxCell>
                <mxCell id="J0D0oRUthXCUPJ4Bvq_p-28" value="выборка&lt;br&gt;ЧЛВК_ИД = 163276" style="text;html=1;strokeColor=none;fillColor=none;align=center;verticalAlign=middle;whiteSpace=wrap;rounded=0;shadow=0;glass=0;sketch=1;" parent="DNUoQDOTjJkvydAdSDQF-1" vertex="1">
                    <mxGeometry x="200" y="120" width="120" height="40" as="geometry"/>
                </mxCell>
                <mxCell id="J0D0oRUthXCUPJ4Bvq_p-35" style="edgeStyle=orthogonalEdgeStyle;curved=1;rounded=0;sketch=1;orthogonalLoop=1;jettySize=auto;html=1;entryX=0.75;entryY=0;entryDx=0;entryDy=0;" parent="DNUoQDOTjJkvydAdSDQF-1" source="J0D0oRUthXCUPJ4Bvq_p-29" target="J0D0oRUthXCUPJ4Bvq_p-9" edge="1">
                    <mxGeometry relative="1" as="geometry"/>
                </mxCell>
                <mxCell id="J0D0oRUthXCUPJ4Bvq_p-29" value="выборка&lt;br&gt;ГРУППА = '1100'" style="text;html=1;strokeColor=none;fillColor=none;align=center;verticalAlign=middle;whiteSpace=wrap;rounded=0;shadow=0;glass=0;sketch=1;" parent="DNUoQDOTjJkvydAdSDQF-1" vertex="1">
                    <mxGeometry x="360" y="120" width="120" height="40" as="geometry"/>
                </mxCell>
            </root>
        </mxGraphModel>
    </diagram>
    <diagram name="noindex23" id="KBrZtCGvrHRrY-GWEG5r">
        <mxGraphModel dx="692" dy="554" grid="1" gridSize="10" guides="1" tooltips="1" connect="1" arrows="1" fold="1" page="1" pageScale="1" pageWidth="827" pageHeight="1169" math="0" shadow="0">
            <root>
                <mxCell id="B9mKX8bVgOkdXgZLt5j8-0"/>
                <mxCell id="B9mKX8bVgOkdXgZLt5j8-1" parent="B9mKX8bVgOkdXgZLt5j8-0"/>
                <mxCell id="B9mKX8bVgOkdXgZLt5j8-2" style="edgeStyle=orthogonalEdgeStyle;curved=1;rounded=0;sketch=1;orthogonalLoop=1;jettySize=auto;html=1;entryX=0.5;entryY=0;entryDx=0;entryDy=0;" edge="1" parent="B9mKX8bVgOkdXgZLt5j8-1" source="B9mKX8bVgOkdXgZLt5j8-3" target="B9mKX8bVgOkdXgZLt5j8-14">
                    <mxGeometry relative="1" as="geometry"/>
                </mxCell>
                <mxCell id="B9mKX8bVgOkdXgZLt5j8-3" value="Н_ЛЮДИ" style="text;html=1;strokeColor=none;fillColor=none;align=center;verticalAlign=middle;whiteSpace=wrap;shadow=0;glass=0;sketch=1;" vertex="1" parent="B9mKX8bVgOkdXgZLt5j8-1">
                    <mxGeometry x="40" y="40" width="120" height="40" as="geometry"/>
                </mxCell>
                <mxCell id="B9mKX8bVgOkdXgZLt5j8-4" style="edgeStyle=orthogonalEdgeStyle;curved=1;rounded=0;sketch=1;orthogonalLoop=1;jettySize=auto;html=1;entryX=0.5;entryY=0;entryDx=0;entryDy=0;" edge="1" parent="B9mKX8bVgOkdXgZLt5j8-1" source="B9mKX8bVgOkdXgZLt5j8-5" target="B9mKX8bVgOkdXgZLt5j8-16">
                    <mxGeometry relative="1" as="geometry"/>
                </mxCell>
                <mxCell id="B9mKX8bVgOkdXgZLt5j8-5" value="Н_ОБУЧЕНИЯ" style="text;html=1;strokeColor=none;fillColor=none;align=center;verticalAlign=middle;whiteSpace=wrap;shadow=0;glass=0;sketch=1;" vertex="1" parent="B9mKX8bVgOkdXgZLt5j8-1">
                    <mxGeometry x="200" y="40" width="120" height="40" as="geometry"/>
                </mxCell>
                <mxCell id="B9mKX8bVgOkdXgZLt5j8-6" style="edgeStyle=orthogonalEdgeStyle;curved=1;rounded=0;sketch=1;orthogonalLoop=1;jettySize=auto;html=1;entryX=0.5;entryY=0;entryDx=0;entryDy=0;" edge="1" parent="B9mKX8bVgOkdXgZLt5j8-1" source="B9mKX8bVgOkdXgZLt5j8-7" target="B9mKX8bVgOkdXgZLt5j8-18">
                    <mxGeometry relative="1" as="geometry"/>
                </mxCell>
                <mxCell id="B9mKX8bVgOkdXgZLt5j8-7" value="Н_УЧЕНИКИ" style="text;html=1;strokeColor=none;fillColor=none;align=center;verticalAlign=middle;whiteSpace=wrap;shadow=0;glass=0;sketch=1;" vertex="1" parent="B9mKX8bVgOkdXgZLt5j8-1">
                    <mxGeometry x="360" y="40" width="120" height="40" as="geometry"/>
                </mxCell>
                <mxCell id="B9mKX8bVgOkdXgZLt5j8-27" style="edgeStyle=orthogonalEdgeStyle;curved=1;rounded=0;sketch=1;orthogonalLoop=1;jettySize=auto;html=1;entryX=0.25;entryY=0;entryDx=0;entryDy=0;" edge="1" parent="B9mKX8bVgOkdXgZLt5j8-1" source="B9mKX8bVgOkdXgZLt5j8-9" target="B9mKX8bVgOkdXgZLt5j8-11">
                    <mxGeometry relative="1" as="geometry"/>
                </mxCell>
                <mxCell id="B9mKX8bVgOkdXgZLt5j8-9" value="соединение&lt;br&gt;Н_ЛЮДИ.ИД =&lt;br&gt;= Н_ОБУЧЕНИЯ.ЧЛВК_ИД" style="text;html=1;strokeColor=none;fillColor=none;align=center;verticalAlign=middle;whiteSpace=wrap;shadow=0;glass=0;sketch=1;" vertex="1" parent="B9mKX8bVgOkdXgZLt5j8-1">
                    <mxGeometry x="80" y="310" width="200" height="60" as="geometry"/>
                </mxCell>
                <mxCell id="B9mKX8bVgOkdXgZLt5j8-10" style="edgeStyle=orthogonalEdgeStyle;curved=1;rounded=0;sketch=1;orthogonalLoop=1;jettySize=auto;html=1;entryX=0.5;entryY=0;entryDx=0;entryDy=0;" edge="1" parent="B9mKX8bVgOkdXgZLt5j8-1" source="B9mKX8bVgOkdXgZLt5j8-11" target="B9mKX8bVgOkdXgZLt5j8-12">
                    <mxGeometry relative="1" as="geometry"/>
                </mxCell>
                <mxCell id="B9mKX8bVgOkdXgZLt5j8-11" value="соединение&lt;br&gt;Н_ЛЮДИ.ИД =&lt;br&gt;= Н_УЧЕНИКИ.ЧЛВК_ИД" style="text;html=1;strokeColor=none;fillColor=none;align=center;verticalAlign=middle;whiteSpace=wrap;shadow=0;glass=0;sketch=1;" vertex="1" parent="B9mKX8bVgOkdXgZLt5j8-1">
                    <mxGeometry x="160" y="430" width="200" height="60" as="geometry"/>
                </mxCell>
                <mxCell id="B9mKX8bVgOkdXgZLt5j8-12" value="проекция&lt;br&gt;Н_ЛЮДИ.ИМЯ,&lt;br&gt;Н_ОБУЧЕНИЯ.ЧЛВК_ИД,&lt;br&gt;Н_УЧЕНИКИ.НАЧАЛО" style="text;html=1;strokeColor=none;fillColor=none;align=center;verticalAlign=middle;whiteSpace=wrap;rounded=0;shadow=0;glass=0;sketch=1;" vertex="1" parent="B9mKX8bVgOkdXgZLt5j8-1">
                    <mxGeometry x="160" y="550" width="200" height="60" as="geometry"/>
                </mxCell>
                <mxCell id="B9mKX8bVgOkdXgZLt5j8-20" style="edgeStyle=orthogonalEdgeStyle;curved=1;rounded=0;sketch=1;orthogonalLoop=1;jettySize=auto;html=1;entryX=0.5;entryY=0;entryDx=0;entryDy=0;" edge="1" parent="B9mKX8bVgOkdXgZLt5j8-1" source="B9mKX8bVgOkdXgZLt5j8-14" target="B9mKX8bVgOkdXgZLt5j8-19">
                    <mxGeometry relative="1" as="geometry"/>
                </mxCell>
                <mxCell id="B9mKX8bVgOkdXgZLt5j8-14" value="выборка&lt;br&gt;ИМЯ &amp;gt; 'Александр'" style="text;html=1;strokeColor=none;fillColor=none;align=center;verticalAlign=middle;whiteSpace=wrap;rounded=0;shadow=0;glass=0;sketch=1;" vertex="1" parent="B9mKX8bVgOkdXgZLt5j8-1">
                    <mxGeometry x="40" y="120" width="120" height="40" as="geometry"/>
                </mxCell>
                <mxCell id="B9mKX8bVgOkdXgZLt5j8-23" style="edgeStyle=orthogonalEdgeStyle;curved=1;rounded=0;sketch=1;orthogonalLoop=1;jettySize=auto;html=1;entryX=0.5;entryY=0;entryDx=0;entryDy=0;" edge="1" parent="B9mKX8bVgOkdXgZLt5j8-1" source="B9mKX8bVgOkdXgZLt5j8-16" target="B9mKX8bVgOkdXgZLt5j8-21">
                    <mxGeometry relative="1" as="geometry"/>
                </mxCell>
                <mxCell id="B9mKX8bVgOkdXgZLt5j8-16" value="выборка&lt;br&gt;ЧЛВК_ИД = 163276" style="text;html=1;strokeColor=none;fillColor=none;align=center;verticalAlign=middle;whiteSpace=wrap;rounded=0;shadow=0;glass=0;sketch=1;" vertex="1" parent="B9mKX8bVgOkdXgZLt5j8-1">
                    <mxGeometry x="200" y="120" width="120" height="40" as="geometry"/>
                </mxCell>
                <mxCell id="B9mKX8bVgOkdXgZLt5j8-29" style="edgeStyle=orthogonalEdgeStyle;curved=1;rounded=0;sketch=1;orthogonalLoop=1;jettySize=auto;html=1;entryX=0.5;entryY=0;entryDx=0;entryDy=0;" edge="1" parent="B9mKX8bVgOkdXgZLt5j8-1" source="B9mKX8bVgOkdXgZLt5j8-18" target="B9mKX8bVgOkdXgZLt5j8-22">
                    <mxGeometry relative="1" as="geometry"/>
                </mxCell>
                <mxCell id="B9mKX8bVgOkdXgZLt5j8-18" value="выборка&lt;br&gt;ГРУППА = '1100'" style="text;html=1;strokeColor=none;fillColor=none;align=center;verticalAlign=middle;whiteSpace=wrap;rounded=0;shadow=0;glass=0;sketch=1;" vertex="1" parent="B9mKX8bVgOkdXgZLt5j8-1">
                    <mxGeometry x="360" y="120" width="120" height="40" as="geometry"/>
                </mxCell>
                <mxCell id="B9mKX8bVgOkdXgZLt5j8-25" style="edgeStyle=orthogonalEdgeStyle;curved=1;rounded=0;sketch=1;orthogonalLoop=1;jettySize=auto;html=1;entryX=0.25;entryY=0;entryDx=0;entryDy=0;" edge="1" parent="B9mKX8bVgOkdXgZLt5j8-1" source="B9mKX8bVgOkdXgZLt5j8-19" target="B9mKX8bVgOkdXgZLt5j8-9">
                    <mxGeometry relative="1" as="geometry"/>
                </mxCell>
                <mxCell id="B9mKX8bVgOkdXgZLt5j8-19" value="проекция&lt;br&gt;ИД, ИМЯ" style="text;html=1;strokeColor=none;fillColor=none;align=center;verticalAlign=middle;whiteSpace=wrap;rounded=0;sketch=1;" vertex="1" parent="B9mKX8bVgOkdXgZLt5j8-1">
                    <mxGeometry x="40" y="200" width="120" height="40" as="geometry"/>
                </mxCell>
                <mxCell id="B9mKX8bVgOkdXgZLt5j8-24" style="edgeStyle=orthogonalEdgeStyle;curved=1;rounded=0;sketch=1;orthogonalLoop=1;jettySize=auto;html=1;entryX=0.75;entryY=0;entryDx=0;entryDy=0;" edge="1" parent="B9mKX8bVgOkdXgZLt5j8-1" source="B9mKX8bVgOkdXgZLt5j8-21" target="B9mKX8bVgOkdXgZLt5j8-9">
                    <mxGeometry relative="1" as="geometry"/>
                </mxCell>
                <mxCell id="B9mKX8bVgOkdXgZLt5j8-21" value="проекция&lt;br&gt;ЧЛВК_ИД" style="text;html=1;strokeColor=none;fillColor=none;align=center;verticalAlign=middle;whiteSpace=wrap;rounded=0;sketch=1;" vertex="1" parent="B9mKX8bVgOkdXgZLt5j8-1">
                    <mxGeometry x="200" y="200" width="120" height="40" as="geometry"/>
                </mxCell>
                <mxCell id="B9mKX8bVgOkdXgZLt5j8-28" style="edgeStyle=orthogonalEdgeStyle;curved=1;rounded=0;sketch=1;orthogonalLoop=1;jettySize=auto;html=1;entryX=0.75;entryY=0;entryDx=0;entryDy=0;" edge="1" parent="B9mKX8bVgOkdXgZLt5j8-1" source="B9mKX8bVgOkdXgZLt5j8-22" target="B9mKX8bVgOkdXgZLt5j8-11">
                    <mxGeometry relative="1" as="geometry"/>
                </mxCell>
                <mxCell id="B9mKX8bVgOkdXgZLt5j8-22" value="проекция&lt;br&gt;ЧЛВК_ИД, НАЧАЛО" style="text;html=1;strokeColor=none;fillColor=none;align=center;verticalAlign=middle;whiteSpace=wrap;rounded=0;sketch=1;" vertex="1" parent="B9mKX8bVgOkdXgZLt5j8-1">
                    <mxGeometry x="360" y="200" width="120" height="40" as="geometry"/>
                </mxCell>
            </root>
        </mxGraphModel>
    </diagram>
</mxfile>
